{"title":"2015 Moscow Victory Day Parade HDTV 1080i","uid":13467344,"size":6570130280,"categoryP":"video","categoryS":"hd___tv_shows","magnet":"?xt=urn:btih:07d767db78cb4f27b1a62a5b5cda65c8e18f48b4&amp;dn=2015+Moscow+Victory+Day+Parade+HDTV+1080i&amp;tr=udp%3A%2F%2Ftracker.leechers-paradise.org%3A6969&amp;tr=udp%3A%2F%2Fzer0day.ch%3A1337&amp;tr=udp%3A%2F%2Fopen.demonii.com%3A1337&amp;tr=udp%3A%2F%2Ftracker.coppersurfer.tk%3A6969&amp;tr=udp%3A%2F%2Fexodus.desync.com%3A6969","seeders":0,"leechers":0,"uploader":"Horisarte","files":1,"time":1454947602,"description":"General\r\nUnique ID                   : 248383042368631160509637975766372402967 (0xBADCD57A4FBCF308AEDE339D1EC34717)\r\nComplete name               : D:2015-05-09 Moscow. The Red Square. The Parade of Victory (Russia Today).mkv\r\nFormat                      : Matroska\r\nFormat version              : Version 4 / Version 2\r\nFile size                   : 6.12 GiB\r\nDuration                    : 1h 56mn\r\nOverall bit rate            : 7 491 Kbps\r\nEncoded date                : UTC 2015-05-09 11:49:30\r\nWriting application         : mkvmerge v7.8.0 ('River Man') 64bit built on Mar 27 2015 16:31:37\r\nWriting library             : libebml v1.3.1 + libmatroska v1.4.2\r\nDURATION                    : 01:56:56.800000000\r\nNUMBER_OF_FRAMES            : 219275\r\nNUMBER_OF_BYTES             : 168403200\r\n_STATISTICS_WRITING_APP     : mkvmerge v7.8.0 ('River Man') 64bit built on Mar 27 2015 16:31:37\r\n_STATISTICS_WRITING_DATE_UT : 2015-05-09 11:49:30\r\n_STATISTICS_TAGS            : BPS DURATION NUMBER_OF_FRAMES NUMBER_OF_BYTES\r\n\r\nVideo\r\nID                          : 1\r\nFormat                      : AVC\r\nFormat/Info                 : Advanced Video Codec\r\nFormat profile              :   \r\nFormat settings, CABAC      : Yes\r\nFormat settings, ReFrames   : 4 frames\r\nCodec ID                    : V_MPEG4/ISO/AVC\r\nDuration                    : 1h 56mn\r\nBit rate                    : 7 150 Kbps\r\nWidth                       : 1 920 pixels\r\nHeight                      : 1 080 pixels\r\nDisplay aspect ratio        : 16:9\r\nFrame rate mode             : Constant\r\nFrame rate                  : 25.000 fps\r\nColor space                 : YUV\r\nChroma subsampling          : 4:2:0\r\nBit depth                   : 8 bits\r\nScan type                   : Interlaced\r\nScan order                  : Top Field First\r\nBits/(Pixel*Frame)          : 0.138\r\nStream size                 : 5.84 GiB (95%)\r\nDefault                     : Yes\r\nForced                      : No\r\nColor primaries             : BT.709\r\nTransfer characteristics    : BT.709\r\nMatrix coefficients         : BT.709\r\nColor range                 : Limited\r\n\r\nAudio\r\nID                          : 2\r\nFormat                      : AC-3\r\nFormat/Info                 : Audio Coding 3\r\nMode extension              : CM (complete main)\r\nFormat settings, Endianness : Big\r\nCodec ID                    : A_AC3\r\nDuration                    : 1h 56mn\r\nBit rate mode               : Constant\r\nBit rate                    : 192 Kbps\r\nChannel(s)                  : 2 channels\r\nChannel positions           : Front: L R\r\nSampling rate               : 48.0 KHz\r\nBit depth                   : 16 bits\r\nCompression mode            : Lossy\r\nStream size                 : 161 MiB (3%)\r\nLanguage                    : English\r\nDefault                     : Yes\r\nForced                      : No\r\n \nhttps://en.wikipedia.org/wiki/2015_Moscow_Victory_Day_Parade","torrent":{"xt":"urn:btih:07d767db78cb4f27b1a62a5b5cda65c8e18f48b4","amp;dn":"2015+Moscow+Victory+Day+Parade+HDTV+1080i","amp;tr":["udp%3A%2F%2Ftracker.leechers-paradise.org%3A6969","udp%3A%2F%2Fzer0day.ch%3A1337","udp%3A%2F%2Fopen.demonii.com%3A1337","udp%3A%2F%2Ftracker.coppersurfer.tk%3A6969","udp%3A%2F%2Fexodus.desync.com%3A6969"],"infoHash":"07d767db78cb4f27b1a62a5b5cda65c8e18f48b4","infoHashBuffer":{"type":"Buffer","data":[7,215,103,219,120,203,79,39,177,166,42,91,92,218,101,200,225,143,72,180]},"announce":[],"urlList":[]}}